<svg width="32" height="32" viewBox="0 0 32 32" fill="none" xmlns="http://www.w3.org/2000/svg">
<path d="M24.25 7.75H24.265M8.5 1H23.5C27.6421 1 31 4.35786 31 8.5V23.5C31 27.6421 27.6421 31 23.5 31H8.5C4.35786 31 1 27.6421 1 23.5V8.5C1 4.35786 4.35786 1 8.5 1ZM22 15.055C22.1851 16.3034 21.9719 17.5783 21.3906 18.6985C20.8094 19.8187 19.8897 20.7271 18.7624 21.2945C17.6352 21.8619 16.3577 22.0594 15.1117 21.8589C13.8657 21.6584 12.7146 21.0701 11.8223 20.1777C10.9299 19.2854 10.3416 18.1343 10.1411 16.8883C9.9406 15.6423 10.1381 14.3648 10.7055 13.2376C11.2729 12.1103 12.1813 11.1906 13.3015 10.6094C14.4217 10.0281 15.6966 9.81488 16.945 10C18.2184 10.1888 19.3973 10.7822 20.3075 11.6925C21.2178 12.6027 21.8112 13.7816 22 15.055Z" stroke="white" stroke-width="2" stroke-linecap="round" stroke-linejoin="round"/>
</svg>
