<svg width="34" height="32" viewBox="0 0 34 32" fill="none" xmlns="http://www.w3.org/2000/svg">
<path d="M23.4 10.4737C25.9461 10.4737 28.3879 11.4718 30.1882 13.2485C31.9886 15.0251 33 17.4348 33 19.9474V31H26.6V19.9474C26.6 19.1098 26.2629 18.3066 25.6627 17.7144C25.0626 17.1222 24.2487 16.7895 23.4 16.7895C22.5513 16.7895 21.7374 17.1222 21.1373 17.7144C20.5371 18.3066 20.2 19.1098 20.2 19.9474V31H13.8V19.9474C13.8 17.4348 14.8114 15.0251 16.6118 13.2485C18.4121 11.4718 20.8539 10.4737 23.4 10.4737Z" stroke="white" stroke-width="2" stroke-linecap="round" stroke-linejoin="round"/>
<path d="M7.4 12.0526H1V31H7.4V12.0526Z" stroke="white" stroke-width="2" stroke-linecap="round" stroke-linejoin="round"/>
<path d="M4.2 7.31579C5.96731 7.31579 7.4 5.90195 7.4 4.15789C7.4 2.41384 5.96731 1 4.2 1C2.43269 1 1 2.41384 1 4.15789C1 5.90195 2.43269 7.31579 4.2 7.31579Z" stroke="white" stroke-width="2" stroke-linecap="round" stroke-linejoin="round"/>
</svg>
