<?xml version="1.0" encoding="UTF-8"?>
<svg id="Layer_1" xmlns="http://www.w3.org/2000/svg" version="1.1" xmlns:xlink="http://www.w3.org/1999/xlink" viewBox="0 0 153.5 32.6">
  <!-- Generator: Adobe Illustrator 29.0.0, SVG Export Plug-In . SVG Version: 2.1.0 Build 186)  -->
  <defs>
    <style>
      .st0 {
        fill: url(#linear-gradient2);
      }

      .st1 {
        fill: #a57dfa;
      }

      .st2 {
        fill: #fff;
      }

      .st3 {
        fill: url(#linear-gradient1);
      }

      .st4 {
        fill-rule: evenodd;
      }

      .st4, .st5 {
        display: none;
      }

      .st6 {
        fill: none;
      }

      .st7 {
        clip-path: url(#clippath-1);
      }

      .st8 {
        fill: url(#linear-gradient3);
      }

      .st9 {
        fill: #eaeaea;
      }

      .st10 {
        fill: url(#linear-gradient);
      }

      .st11 {
        clip-path: url(#clippath);
      }
    </style>
    <clipPath id="clippath">
      <rect class="st6" x="119" y="3.5" width="26.2" height="25.8"/>
    </clipPath>
    <linearGradient id="linear-gradient" x1="131.9" y1="28.4" x2="131.9" y2="2.6" gradientTransform="translate(0 31.9) scale(1 -1)" gradientUnits="userSpaceOnUse">
      <stop offset="0" stop-color="#545454"/>
      <stop offset="1" stop-color="#fff"/>
    </linearGradient>
    <linearGradient id="linear-gradient1" x1="142" y1="18.1" x2="124" y2="5.1" gradientTransform="translate(0 31.9) scale(1 -1)" gradientUnits="userSpaceOnUse">
      <stop offset="0" stop-color="#eaeaea"/>
      <stop offset="1" stop-color="#d5d5d5"/>
    </linearGradient>
    <clipPath id="clippath-1">
      <rect class="st6" x="119" y="3.5" width="26.3" height="25.9"/>
    </clipPath>
    <linearGradient id="linear-gradient2" x1="131.8" y1="28.4" x2="131.9" y2="11.8" gradientTransform="translate(0 31.9) scale(1 -1)" gradientUnits="userSpaceOnUse">
      <stop offset="0" stop-color="#460dc0"/>
      <stop offset="1" stop-color="#8a53ff"/>
    </linearGradient>
    <linearGradient id="linear-gradient3" x1="144.6" y1="20.2" x2="122.8" y2="3.7" gradientTransform="translate(0 31.9) scale(1 -1)" gradientUnits="userSpaceOnUse">
      <stop offset="0" stop-color="#a57dfa"/>
      <stop offset="1" stop-color="#8b54ff"/>
    </linearGradient>
  </defs>
  <g>
    <path class="st2" d="M16.3,32.6h120.8c9,0,16.3-7.3,16.3-16.3h0C153.4,7.3,146.1,0,137.1,0H16.3C7.3,0,0,7.3,0,16.3h0c0,9,7.3,16.3,16.3,16.3Z"/>
    <g>
      <g class="st5">
        <path d="M22.3,19.9c-.4,0-.7-.1-1-.2s-.5-.3-.7-.5-.3-.4-.4-.7c-.1-.3-.1-.5-.1-.8v-1.9h1.2v1.7c0,.4.1.7.3.9s.5.3,1,.3h4.7c.7,0,1.1-.3,1.1-1v-1.8h1.2v2c0,.3-.1.6-.2.9s-.3.5-.5.6-.4.3-.7.4-.5.1-.8.1h-5.1ZM24.5,22.7h-1.3v-1.2h1.3v1.2ZM25.5,24.5h-1.3v-1.2h1.3v1.2ZM26.4,22.7h-1.3v-1.2h1.3v1.2Z"/>
        <path d="M31.2,11.1h1.2v8.8h-1.2v-8.8Z"/>
        <path d="M41.3,18.7c.7,0,1.1-.3,1.1-1v-1.8h1.2v1.8c0,.2,0,.4,0,.5s.2.2.3.3c0,.1.2.1.4.2s.3.1.4.1h.2c0,0,.2.1.2.1,0,.1,0,.2,0,.5s0,.4,0,.5c0,.1,0,.2-.2.2h-.3c-.3,0-.7-.1-1-.2s-.5-.5-.7-.9c-.2.4-.5.6-.8.7s-.6.2-.9.2h-4.9c-.4,0-.7-.1-1-.2s-.5-.3-.7-.5-.3-.4-.4-.7c0-.3,0-.5,0-.8v-1.9h1.2v1.7c0,.4,0,.7.3.9s.5.3,1,.3h4.6ZM39.6,22.7h-1.4v-1.2h1.4v1.2Z"/>
        <path d="M46,18.7c.7,0,1.1-.3,1.1-1v-1.8h1.2v1.8c0,.2,0,.4,0,.5s0,.2.2.3c0,.1.2.1.4.2,0,0,.3.1.4.1h.4c.2,0,.3.2.3.6s0,.6-.3.6h-.4c-.3,0-.7-.1-1-.2s-.6-.4-.8-.7c-.2.4-.5.6-.8.7s-.6.2-.9.2h-1c0,0-.2-.1-.2-.1,0-.1,0-.2,0-.4s0-.4,0-.5c0-.1,0-.2.2-.2h1.1ZM47,22.7h-1.3v-1.2h1.3v1.2ZM48.9,22.7h-1.2v-1.2h1.2v1.2Z"/>
        <path d="M50.4,18.7c.8,0,1.1-.3,1.1-1v-1.8h1.2v1.8c0,.2,0,.4,0,.5s.2.2.3.3c0,.1.2.1.4.2s.3.1.4.1c.8,0,1.2-.3,1.2-1v-1.8h1.2v1.8c0,.4,0,.7.3.8.2.1.4.2.7.2s.6-.1.8-.3c.2-.2.3-.4.3-.8v-1.8h1.2v1.9c0,.7-.2,1.3-.6,1.6-.4.4-.9.6-1.6.6s-.7-.1-.9-.2c-.3-.1-.6-.4-.8-.7-.2.4-.5.6-.8.7s-.6.2-1,.2-.7-.1-1-.2-.7-.4-.9-.8c-.2.4-.5.6-.8.7s-.6.2-.9.2h-.5c0,0-.2-.1-.2-.1,0-.1,0-.2,0-.4s0-.4,0-.5c0-.1,0-.2.2-.2h.6Z"/>
      </g>
      <path d="M64.5,21.1c-.2.4-.4.8-.7,1.2s-.7.6-1.1.8-.9.3-1.3.3h-.9v-1.2c0,0,.6,0,.6,0,.4,0,.8-.1,1.2-.2.3-.1.6-.3.8-.6s.3-.5.4-.8c0-.3,0-.6,0-.9v-3.9h1.2v3.9c0,.5-.1,1-.3,1.4ZM64.8,14.1h-1.4v-1.2h1.4v1.2Z"/>
      <path d="M66.5,11.1h1.2v8.8h-1.2v-8.8Z"/>
      <path d="M78.6,18.7c.7,0,1.1-.3,1.1-1v-1.8h1.2v1.8c0,.2,0,.4,0,.5s0,.2.3.3c0,.1.2.1.4.2s.3.1.4.1h.3c0,0,.2.1.2.1,0,.1,0,.2,0,.5s0,.4,0,.5c0,.1,0,.2-.2.2h-.4c-.4,0-.7-.1-1-.2s-.6-.4-.8-.7c-.2.4-.5.6-.8.7s-.6.2-.9.2h-4.9c-.4,0-.7-.1-1-.2s-.5-.3-.7-.5-.3-.4-.4-.7c0-.3,0-.5,0-.8v-1.9h1.2v1.7c0,.4,0,.7.3.9s.5.3,1,.3l4.7-.2h0ZM75.9,14.6h-1.3v-1.2h1.3v1.2ZM77.8,14.6h-1.3v-1.2h1.3v1.2Z"/>
      <path d="M84.1,18.7h.7c.2,0,.4,0,.6.1-.4-.2-.8-.3-1.1-.5-.3-.2-.4-.3-.6-.5s-.2-.4-.2-.6,0-.5,0-.7,0-.5,0-.8c0-.3.2-.5.4-.7s.4-.4.8-.6c.3-.1.6-.2,1-.2s.7.1,1,.1.6.2.8.5c.2.2.4.5.5.9,0,.4.2.8.2,1.3v.7c0,.7-.2,1.3-.7,1.7s-1.1.6-2.1.6h-3.3c0,0-.2-.1-.2-.1,0-.1,0-.2,0-.4s0-.4,0-.5c0-.1,0-.2.2-.2h2ZM85.8,15.3c-.2,0-.4,0-.5.1s-.3.2-.4.3-.2.2-.2.4,0,.3,0,.4,0,.3,0,.4,0,.3.3.4.4.3.7.4.7.3,1.2.5c0-.1.2-.2.3-.4,0-.2,0-.4,0-.6v-.2c0-.5,0-.9-.3-1.2-.4-.3-.7-.5-1.2-.5ZM86.5,12.8h-1.4v-1.2h1.4v1.2Z"/>
      <path d="M91.9,19.9c-.3,0-.5,0-.7-.1s-.4-.2-.6-.4-.3-.4-.4-.7c0-.3-.2-.6-.2-1v-6.6h1.2v6.3c0,.4,0,.6.2.9s.4.3.8.3h.3c.2,0,.3.2.3.6s0,.6-.3.6h-.6Z"/>
      <path d="M92.4,19.9c0,0-.2-.1-.2-.1,0-.1,0-.2,0-.4s0-.4,0-.5c0-.1,0-.2.2-.2h3.2c.3,0,.6-.1.8-.3.2-.2.3-.4.3-.8v-1.8h1.2v1.9c0,.7-.2,1.3-.6,1.6-.4.4-.9.6-1.6.6h-3.3ZM94.2,22.7h-1.2v-1.2h1.3v1.2h-.1ZM96.2,22.7h-1.2v-1.2h1.2v1.2Z"/>
      <path d="M97.3,22.1h.2c.4,0,.8-.1,1.1-.2s.6-.3.8-.6.4-.5.4-.8c0-.3,0-.6,0-.9v-3.9h1.2v3.9c0,.5,0,1-.3,1.5-.2.4-.4.8-.7,1.2-.3.3-.7.6-1.1.8s-.9.3-1.3.3h-.4v-1.3Z"/>
      <path d="M107.9,16.4c.2.3.4.6.5.8s.2.6.2.8,0,.5,0,.7-.2.4-.4.6c-.2.2-.4.3-.7.4-.3.1-.6.1-.9.1h-3.9v-1.2c0,0,3.7,0,3.7,0,.3,0,.5-.1.7-.2s.2-.3.2-.5,0-.5-.3-.7l-2.5-2.9.9-.9,2.6,3Z"/>
    </g>
    <g class="st5">
      <path d="M137.7,21.4c.3-1.6.1-3-.5-4.4-.6-1.2-1.6-2.1-2.6-2.9-2-1.5-4.3-2.2-6.8-2.3h-.3c.7-.3,1.3-.6,2-.8,2.7-.7,5.4-.3,8,.6.4.1.8.3,1.2.5.1.1.2.2.3.3.5,2.6.5,5.2-.6,7.8-.2.3-.5.7-.7,1.2Z"/>
      <path d="M139.7,15.6c1,1.6,1.2,3.3,1.2,5s-.6,4.2-1.5,6.2c-.1.1-.2.2-.3.3-3,.6-5.9.4-8.6-.9h-.1c.3-.1.5,0,.7,0h.6c2,0,3.7-.7,4.9-2.2.8-1,1.5-2.2,2.1-3.4.7-1.4,1-3,1.1-4.6-.2-.2-.2-.3,0-.4Z"/>
      <path d="M123.3,23.6c-.2-.7-.5-1.4-.6-2.2-.5-3,0-5.8,1.2-8.6,0-.1.2-.2.3-.3,2.8-.6,5.6-.6,8.3.8h.1c-.4.1-.8.1-1.2.1-2.4.2-4.2,1.6-5.6,3.4-1.4,1.9-2.1,4-2.2,6.4v.4q-.2,0-.3,0Z"/>
      <path d="M135.1,28c-.8.5-1.8.7-2.7.8-2.7.3-5.2-.2-7.7-1.3,0-.1-.3-.2-.4-.4-.7-2.9-.6-5.8.8-8.6,0-.1,0-.1,0-.2-.2,1.2-.3,2.4.2,3.4.3.8.7,1.5,1.2,2.1,2.1,2.5,4.9,3.8,8.2,4.1q.2.1.3.1Z"/>
      <path d="M131.4,8.6c0-2.9,3.4-5.2,5.8-4.9.2,2.7-3.1,5.5-5.8,4.9Z"/>
    </g>
  </g>
  <path class="st5" d="M130.8,8.2c.3-2.8,2.9-4.8,5.7-4.4h.5c0,0,.1.1.1.2v.5c-.4,2.8-2.9,4.8-5.7,4.4h-.5c0,0-.1-.1-.1-.2v-.5Z"/>
  <path class="st4" d="M128,10.5c-3.1,0-5.7,2.6-5.7,5.7v6.9c0,3.2,2.5,5.7,5.7,5.7h6.9c3.1,0,5.7-2.6,5.7-5.7v-6.9c0-3.2-2.6-5.7-5.7-5.7h-6.9ZM128.3,14.5c-1.1,0-2,.9-2,2v6.3c0,1.1.9,2,2,2h6.3c1.1,0,2-.9,2-2v-6.3c0-1.1-.9-2-2-2h-6.3Z"/>
  <g>
    <path d="M12.2,19.6c0,.6-.1,1.1-.3,1.5-.2.5-.4.8-.8,1.2-.3.3-.7.6-1.2.7-.5.2-1,.3-1.6.3h-.8v-1.5h.8c.4,0,.7,0,1-.1.3,0,.5-.2.7-.4s.3-.4.4-.7c0-.3.1-.6.1-1.1v-3.7h1.5v3.9Z"/>
    <path d="M16.7,20c-.5,0-.8,0-1.2,0-.3,0-.6-.1-.8-.2-.2-.1-.4-.3-.5-.4-.1-.2-.2-.4-.3-.6,0-.2-.1-.5-.1-.8,0-.3,0-.6,0-.9v-5.8h1.5v5.8c0,.3,0,.6,0,.8,0,.2,0,.4.2.5,0,.1.2.2.4.2.2,0,.5,0,.8,0v1.5Z"/>
    <path d="M19.1,18.4c0,0,.1,0,.2,0,0,0,0,0,0,.2v1.1c0,0,0,.2,0,.2,0,0-.1,0-.2,0h-2.6c0,0-.2,0-.2,0,0,0,0-.1,0-.2v-1.1c0,0,0-.1,0-.2,0,0,.1,0,.2,0h2.6Z"/>
    <path d="M21.7,18.4c0,0,.1,0,.2,0,0,0,0,0,0,.2v1.1c0,0,0,.2,0,.2,0,0-.1,0-.2,0h-2.6c0,0-.2,0-.2,0,0,0,0-.1,0-.2v-1.1c0,0,0-.1,0-.2,0,0,.1,0,.2,0h2.6Z"/>
    <path d="M28.1,18.4v1.5h-.9c-.3,0-.7,0-1-.1-.3,0-.5-.2-.7-.4-.2.2-.5.3-.8.4-.3,0-.7.1-1.1.1h-2.1v-1.5h2.1c.3,0,.4,0,.6,0,.2,0,.3-.1.3-.2,0,0,.1-.1.1-.2,0,0,0-.2,0-.3v-2h1.5v1.9c0,.2,0,.3.1.4,0,.1.2.2.3.2.1,0,.2,0,.3,0,.1,0,.2,0,.2,0h.9Z"/>
    <polygon points="26.1 14.1 25 13.1 26 12 27.1 13.1 26.1 14.1"/>
    <polygon points="23.5 14.1 22.4 13.1 23.5 12 24.5 13.1 23.5 14.1"/>
    <path d="M32.7,20c-.7,0-1.3-.2-1.8-.6-.2.2-.5.4-.8.5-.3,0-.6.1-.8.1h-1.4v-1.5h1.4s.1,0,.2,0c0,0,.2,0,.3-.1,0,0,.2-.2.2-.3,0-.1.1-.3.1-.5v-1.8h1.5v1.7c0,.3,0,.6.2.7.2.2.4.2.8.2s.1,0,.2,0c0,0,.2,0,.3-.1,0,0,.2-.2.2-.3,0-.1.1-.3.1-.5v-1.7h1.5v1.7c0,.3,0,.6.2.7.2.2.4.2.8.2s.1,0,.2,0c0,0,.2,0,.3-.1,0,0,.2-.2.2-.3,0-.1,0-.3,0-.5s0-.2,0-.3c0-.1,0-.3,0-.4,0-.1,0-.3,0-.4,0-.1,0-.3,0-.4,0-.1,0-.3,0-.4,0-.1,0-.2,0-.3l1.4-.5s0,0,0,.2c0,.1,0,.2,0,.4,0,.2,0,.3.1.5,0,.2,0,.4,0,.6,0,.2,0,.4,0,.5,0,.2,0,.3,0,.5,0,.4,0,.8-.2,1.1-.1.3-.3.6-.5.8-.2.2-.5.4-.8.5-.3.1-.6.2-.8.2-.8,0-1.4-.2-1.8-.6-.2.2-.5.4-.8.5-.3,0-.5.1-.8.1Z"/>
    <rect x="40.5" y="11.1" width="1.2" height="8.9"/>
    <path d="M45.7,20c-.3,0-.6,0-.9-.2-.3-.1-.5-.3-.7-.4,0,0-.2-.2-.3-.3,0-.1-.2-.2-.2-.4,0-.2-.1-.3-.2-.5,0-.2,0-.4,0-.6s0-.4,0-.7c0-.2,0-.5.1-.7,0-.2.1-.4.1-.6,0-.2,0-.3,0-.3l.7.2.7.2c0,.1,0,.2-.1.4,0,.2,0,.3-.1.5,0,.2,0,.3,0,.5,0,.2,0,.3,0,.4,0,.2,0,.4,0,.5,0,.1.1.2.2.3,0,0,.2.1.2.1,0,0,.2,0,.3,0h7.3s.1,0,.2,0c0,0,.2,0,.3-.1,0,0,.2-.2.2-.3,0-.1.1-.3.1-.5s0-.2,0-.3c0-.1,0-.3,0-.4,0-.1,0-.3,0-.4,0-.2,0-.3,0-.4,0,0,0-.1,0-.2l1.5-.4s0,0,0,0c0,.2,0,.3,0,.5,0,.2,0,.4,0,.6,0,.2,0,.4,0,.6,0,.2,0,.3,0,.5,0,.4,0,.8-.2,1.1-.1.3-.3.6-.5.8-.2.2-.5.4-.8.4-.3,0-.6.1-.8.1h-7.3Z"/>
    <polygon points="47.2 22 48.2 20.9 49.3 22 48.2 23 47.2 22"/>
    <polygon points="49.7 22 50.8 20.9 51.8 22 50.8 23 49.7 22"/>
    <rect x="48.8" y="23" width="1.4" height="1.4" transform="translate(-2.3 41.9) rotate(-45)"/>
    <rect x="57.2" y="11.1" width="1.2" height="8.9"/>
  </g>
  <g class="st5">
    <g class="st11">
      <g>
        <path class="st9" d="M141.8,17.2h-19.4c-1.9,0-3.4-1.5-3.4-3.4s1.5-3.4,3.4-3.4h19.4c1.9,0,3.4,1.5,3.4,3.4s-1.5,3.4-3.4,3.4Z"/>
        <path class="st10" d="M141.5,24.7l-5.7-18.7c-.3-.9-.9-1.6-1.6-2,0,0,0,0,0,0,0,0,0,0,0,0,0,0,0,0,0,0,0,0,0,0,0,0,0,0,0,0,0,0,0,0,0,0-.1,0,0,0,0,0,0,0,0,0-.1,0-.2,0,0,0,0,0,0,0,0,0-.1,0-.2,0h0c-.6-.1-1.2-.1-1.8,0-1.1.3-1.9,1.2-2.2,2.1,0,0,0,0,0,0l-6.8,18.8c-.7,1.8.2,3.8,2,4.5,1.8.6,3.8-.3,4.4-2.1l3.3-9.2,2.7,8.9c.5,1.8,2.5,2.8,4.3,2.3,1.8-.5,2.8-2.5,2.3-4.3Z"/>
        <path class="st3" d="M143.8,16.6l-16.1,12c-1.6,1.2-3.7.9-4.9-.6-1.1-1.5-.8-3.7.8-4.8l16.1-12c1.6-1.2,3.7-.9,4.9.6,1.1,1.5.8,3.7-.8,4.8Z"/>
      </g>
    </g>
  </g>
  <g class="st7">
    <g>
      <path class="st1" d="M141.9,17.3h-19.5c-1.9,0-3.4-1.5-3.4-3.4s1.5-3.4,3.4-3.4h19.5c1.9,0,3.4,1.5,3.4,3.4s-1.5,3.4-3.4,3.4Z"/>
      <path class="st0" d="M141.5,24.8l-5.7-18.8c-.3-.9-.9-1.6-1.6-2,0,0,0,0,0,0,0,0,0,0,0,0,0,0,0,0,0,0,0,0,0,0,0,0,0,0,0,0,0,0,0,0,0,0-.1,0,0,0,0,0,0,0,0,0-.1,0-.2,0,0,0,0,0,0,0,0,0-.1,0-.2,0h0c-.6-.1-1.2-.1-1.8,0-1.1.3-1.9,1.2-2.3,2.2,0,0,0,0,0,0l-6.9,18.9c-.7,1.8.2,3.8,2,4.5,1.8.7,3.8-.3,4.4-2.1l3.4-9.2,2.7,8.9c.5,1.8,2.5,2.9,4.3,2.3,1.8-.6,2.9-2.5,2.3-4.3Z"/>
      <path class="st8" d="M143.8,16.7l-16.1,12c-1.6,1.2-3.8.9-4.9-.7-1.1-1.5-.8-3.7.8-4.9l16.1-12c1.6-1.2,3.8-.9,4.9.7,1.1,1.5.8,3.7-.8,4.9Z"/>
    </g>
  </g>
</svg>