<svg id="Layer_1" data-name="Layer 1" xmlns="http://www.w3.org/2000/svg" viewBox="0 0 153.4 32.6"><defs><style>.cls-1{fill:#fff;}.cls-2{fill:#070707;}.cls-3{fill:#0a0a0a;}</style></defs><title>sibche1</title><path class="cls-1" d="M16.3,32.6H137.1a16.3,16.3,0,0,0,16.3-16.3h0A16.3,16.3,0,0,0,137.1,0H16.3A16.3,16.3,0,0,0,0,16.3H0A16.3,16.3,0,0,0,16.3,32.6Z" transform="translate(0 0)"/><path d="M26.7,16.5a2.39,2.39,0,0,0,.2.9c.1.3.4.3.8.3H28c.1,0,.2,0,.2.1a2,2,0,0,1,.1.5.75.75,0,0,1-.1.5c-.1.1-.1.2-.2.2h-.3a2,2,0,0,1-1.1-.3,2.18,2.18,0,0,1-.7-.9,1.38,1.38,0,0,1-.4.3c-.2.1-.3.1-.5.2s-.3.1-.5.1H24a2.11,2.11,0,0,1-1.6-.6,2.31,2.31,0,0,1-.5-1.7,3,3,0,0,1,.2-1,3.55,3.55,0,0,1,.4-.9,1.24,1.24,0,0,1,.8-.6,4.4,4.4,0,0,1,1-.2h1.3v-1h1.1v4.1Zm-2.5.7a1.49,1.49,0,0,0,1-.3,1,1,0,0,0,.4-.7V14.4H24.3a1.16,1.16,0,0,0-1,.4A2.13,2.13,0,0,0,23,16a1.06,1.06,0,0,0,1.2,1.2Z" transform="translate(0 0)"/><path d="M34.2,16.9c.2.3.3.5.5.6a1.45,1.45,0,0,0,.7.2h.9c.1,0,.2,0,.2.1a2,2,0,0,1,.1.5.75.75,0,0,1-.1.5c-.1.1-.1.2-.2.2h-.9a2,2,0,0,1-.8-.1l-.6-.3a1,1,0,0,1-.4-.5l-.3-.6-1.3.7c-.2.1-.5.3-.7.4a1.88,1.88,0,0,1-.8.2,2.77,2.77,0,0,1-.9.1H28c-.1,0-.2,0-.2-.1a2,2,0,0,1-.1-.5.75.75,0,0,1,.1-.5.22.22,0,0,1,.2-.2h1.7a2.2,2.2,0,0,0,.8-.1,6.37,6.37,0,0,0,.7-.2l.6-.3,2.1-1.2c-.1-.2-.2-.3-.2-.5s-.2-.2-.3-.3a.52.52,0,0,0-.4-.2c-.2,0-.4-.1-.6-.1H29.3l.1-1.2h3.2a2.2,2.2,0,0,1,.8.1,1.61,1.61,0,0,1,.7.4,9.68,9.68,0,0,1,.7.9,5.27,5.27,0,0,1,.5,1.5Zm-2.6,4.8H30.3V20.5h1.3Zm1,1.8H31.3V22.3h1.3Zm.9-1.8H32.2V20.5h1.3Z" transform="translate(0 0)"/><path d="M37.4,17.7c.7,0,1.1-.3,1.1-1V14.9h1.2v1.8a.75.75,0,0,0,.1.5c.1.1.1.2.2.3s.2.1.4.2.3.1.4.1h.4q.3,0,.3.6t-.3.6h-.4a3.55,3.55,0,0,1-1-.2,1.78,1.78,0,0,1-.8-.7,1.34,1.34,0,0,1-.8.7,2.92,2.92,0,0,1-.9.2h-1c-.1,0-.2,0-.2-.1s-.1-.4-.1-.6a.75.75,0,0,1,.1-.5.22.22,0,0,1,.2-.2h1.1Zm2,4H38V20.5h1.4Z" transform="translate(0 0)"/><path d="M42.2,17.7c.7,0,1.1-.3,1.1-1V14.9h1.2v1.8a.75.75,0,0,0,.1.5c.1.1.1.2.2.3s.2.1.4.2.3.1.4.1H46q.3,0,.3.6T46,19h-.4a3.55,3.55,0,0,1-1-.2,1.78,1.78,0,0,1-.8-.7,1.34,1.34,0,0,1-.8.7,2.92,2.92,0,0,1-.9.2h-1c-.1,0-.2,0-.2-.1a2,2,0,0,1-.1-.5.75.75,0,0,1,.1-.5.22.22,0,0,1,.2-.2Zm1,4H41.9V20.5h1.3Zm1.9,0H43.9V20.5h1.2Z" transform="translate(0 0)"/><path d="M46.5,17.7c.8,0,1.1-.3,1.1-1V14.9h1.2v1.8a.75.75,0,0,0,.1.5l.3.3c.1.1.2.1.4.2s.3.1.4.1c.8,0,1.2-.3,1.2-1V15h1.2v1.8c0,.4.1.7.3.8a1.45,1.45,0,0,0,.7.2,1.14,1.14,0,0,0,.8-.3,1,1,0,0,0,.3-.8V14.9h1.2v1.9a2,2,0,0,1-.6,1.6,2.58,2.58,0,0,1-1.6.6,2.39,2.39,0,0,1-.9-.2,1.78,1.78,0,0,1-.8-.7,1.34,1.34,0,0,1-.8.7,2.6,2.6,0,0,1-2,0,1.78,1.78,0,0,1-.8-.7,1.34,1.34,0,0,1-.8.7,2.92,2.92,0,0,1-.9.2H46c-.1,0-.2,0-.2-.1a2,2,0,0,1-.1-.5.75.75,0,0,1,.1-.5.22.22,0,0,1,.2-.2Z" transform="translate(0 0)"/><path d="M60.7,20.1a4.73,4.73,0,0,1-.7,1.2,2.84,2.84,0,0,1-1.1.8,3.08,3.08,0,0,1-1.3.3h-.9l-.1-1.2h.7a5,5,0,0,0,1.2-.2,2.18,2.18,0,0,0,.8-.5,2,2,0,0,0,.4-.8,2.77,2.77,0,0,0,.1-.9V14.9H61v3.9A3.08,3.08,0,0,1,60.7,20.1Zm.3-7H59.6V11.9H61Z" transform="translate(0 0)"/><path d="M62.7,10.1h1.2v8.8H62.7Z" transform="translate(0 0)"/><path d="M74.8,17.7c.7,0,1.1-.3,1.1-1V14.9h1.2v1.8a.75.75,0,0,0,.1.5c.1.1.1.2.3.3s.2.1.4.2.3.1.4.1h.3c.1,0,.2,0,.2.1a2,2,0,0,1,.1.5.75.75,0,0,1-.1.5c-.1.1-.1.2-.2.2h-.3a3,3,0,0,1-1-.2,1.78,1.78,0,0,1-.8-.7,1.34,1.34,0,0,1-.8.7,2.92,2.92,0,0,1-.9.2H69.9a3,3,0,0,1-1-.2,1.79,1.79,0,0,1-.7-.5,1.61,1.61,0,0,1-.4-.7,2.2,2.2,0,0,1-.1-.8v-2h1.2v1.6a1.22,1.22,0,0,0,.3.9,1.33,1.33,0,0,0,1,.3Zm-2.7-4.1H70.8V12.4h1.3Zm1.9,0H72.7V12.4H74Z" transform="translate(0 0)"/><path d="M80.3,17.7h1.3a11.73,11.73,0,0,1-1.1-.5,3.17,3.17,0,0,1-.6-.5.73.73,0,0,1-.2-.6c0-.2-.1-.5-.1-.7s.1-.5.1-.8a1.61,1.61,0,0,1,.4-.7,1.58,1.58,0,0,1,.8-.5,3,3,0,0,1,1-.2,3.08,3.08,0,0,1,1,.1,1.37,1.37,0,0,1,.8.5,1.93,1.93,0,0,1,.5.9,5.07,5.07,0,0,1,.2,1.3v.7a2.06,2.06,0,0,1-.7,1.7,2.93,2.93,0,0,1-2.1.6H78.3c-.1,0-.2,0-.2-.1a2,2,0,0,1-.1-.5.75.75,0,0,1,.1-.5.22.22,0,0,1,.2-.2ZM82,14.3a.75.75,0,0,0-.5.1c-.1.1-.3.2-.4.3a.52.52,0,0,0-.2.4c0,.2-.1.3-.1.5a.9.9,0,0,0,.1.5c.1.2.1.3.3.4s.4.3.7.5a7.26,7.26,0,0,0,1.2.5,1.38,1.38,0,0,0,.3-.4,1.27,1.27,0,0,0,.1-.6V16a2.13,2.13,0,0,0-.3-1.2A1.85,1.85,0,0,0,82,14.3Zm.7-2.5H81.3V10.6h1.4Z" transform="translate(0 0)"/><path d="M88.1,18.9a1.48,1.48,0,0,1-.7-.1,2.09,2.09,0,0,1-.6-.4,1.61,1.61,0,0,1-.4-.7,3,3,0,0,1-.2-1V10.1h1.2v6.3a2.39,2.39,0,0,0,.2.9c.1.3.4.3.8.3h.3q.3,0,.3.6t-.3.6l-.6.1Z" transform="translate(0 0)"/><path d="M88.6,18.9c-.1,0-.2,0-.2-.1a2,2,0,0,1-.1-.5.75.75,0,0,1,.1-.5.22.22,0,0,1,.2-.2h3.2a1.14,1.14,0,0,0,.8-.3,1,1,0,0,0,.3-.8V14.7h1.2v1.9a2,2,0,0,1-.6,1.6,2.58,2.58,0,0,1-1.6.6l-3.3.1Zm1.8,2.8H89.1V20.5h1.3Zm1.9,0H91.1V20.5h1.2Z" transform="translate(0 0)"/><path d="M93.5,21.1h.2a3.59,3.59,0,0,0,1.1-.2,2.18,2.18,0,0,0,.8-.5,1.23,1.23,0,0,0,.4-.8,2.77,2.77,0,0,0,.1-.9V14.8h1.2v3.9a4,4,0,0,1-.3,1.5,4.73,4.73,0,0,1-.7,1.2,4.44,4.44,0,0,1-1.1.8,3.08,3.08,0,0,1-1.3.3h-.4Z" transform="translate(0 0)"/><path d="M104.1,15.4a9.22,9.22,0,0,1,.5.8,1.88,1.88,0,0,1,.2.8c0,.2-.1.5-.1.7s-.2.4-.4.6a1.61,1.61,0,0,1-.7.4,2.77,2.77,0,0,1-.9.1H98.8l-.1-1.2h3.8a1.45,1.45,0,0,0,.7-.2c.2-.1.2-.3.2-.5a1.08,1.08,0,0,0-.3-.7l-2.5-2.9.9-.9Z" transform="translate(0 0)"/><path class="cls-2" d="M122.1,19.4A9.6,9.6,0,0,1,141,16.9a9.35,9.35,0,0,1-1.9,8.6c-.3.4-.3.4-.7,0a10.68,10.68,0,0,1-2-3.6,12.41,12.41,0,0,1-.3-2.7,4.47,4.47,0,0,0-3.7-4.1,4.31,4.31,0,0,0-4.7,2.7,4,4,0,0,0,.8,4.4,4.31,4.31,0,0,0,4.3,1.4,3.58,3.58,0,0,0,1.1-.4c.2-.2.4-.1.5.1.8,1.3,1.5,2.6,2.3,3.9.1.2.1.4-.1.5a8.46,8.46,0,0,1-3.5,1.1,9.61,9.61,0,0,1-9.9-5.3A7.06,7.06,0,0,1,122.1,19.4Z" transform="translate(0 0)"/><path class="cls-3" d="M137.5,3.8a4.87,4.87,0,0,1,1.2.1c.3,0,.4.1.3.4-1,2.6-2.8,4.4-5.9,4.5h-1.7c-.4,0-.4-.2-.3-.5a6.24,6.24,0,0,1,6.2-4.4c0-.1.1-.1.2-.1Z" transform="translate(0 0)"/></svg>